%TF.GenerationSoftware,KiCad,Pcbnew,6.0.11-2627ca5db0~126~ubuntu22.04.1*%
%TF.CreationDate,2023-02-14T15:09:55+01:00*%
%TF.ProjectId,pcb,7063622e-6b69-4636-9164-5f7063625858,rev?*%
%TF.SameCoordinates,Original*%
%TF.FileFunction,Copper,L1,Top*%
%TF.FilePolarity,Positive*%
%FSLAX46Y46*%
G04 Gerber Fmt 4.6, Leading zero omitted, Abs format (unit mm)*
G04 Created by KiCad (PCBNEW 6.0.11-2627ca5db0~126~ubuntu22.04.1) date 2023-02-14 15:09:55*
%MOMM*%
%LPD*%
G01*
G04 APERTURE LIST*
%TA.AperFunction,ComponentPad*%
%ADD10C,1.700000*%
%TD*%
%TA.AperFunction,ComponentPad*%
%ADD11O,1.700000X1.700000*%
%TD*%
%TA.AperFunction,ComponentPad*%
%ADD12R,1.600000X1.600000*%
%TD*%
%TA.AperFunction,ComponentPad*%
%ADD13O,1.600000X1.600000*%
%TD*%
%TA.AperFunction,ComponentPad*%
%ADD14C,1.400000*%
%TD*%
%TA.AperFunction,ComponentPad*%
%ADD15C,1.600000*%
%TD*%
%TA.AperFunction,ViaPad*%
%ADD16C,3.000000*%
%TD*%
%TA.AperFunction,Conductor*%
%ADD17C,0.800000*%
%TD*%
G04 APERTURE END LIST*
D10*
%TO.P,REF\u002A\u002A,1*%
%TO.N,INTERRUPT*%
X127375000Y-90000000D03*
%TD*%
%TO.P,REF\u002A\u002A,1*%
%TO.N,Earth*%
X119500000Y-91500000D03*
%TD*%
%TO.P,REF\u002A\u002A,1*%
%TO.N,INTERRUPT*%
X126610000Y-107000000D03*
%TD*%
%TO.P,REF\u002A\u002A,1*%
%TO.N,Earth*%
X165750000Y-103000000D03*
%TD*%
D11*
%TO.P,REF\u002A\u002A,1*%
%TO.N,3.3v*%
X161500000Y-97650000D03*
%TO.P,REF\u002A\u002A,2*%
%TO.N,CS*%
X161500000Y-100190000D03*
%TO.P,REF\u002A\u002A,3*%
%TO.N,MOSI*%
X161500000Y-102730000D03*
%TO.P,REF\u002A\u002A,4*%
%TO.N,CLK*%
X161500000Y-105270000D03*
%TO.P,REF\u002A\u002A,5*%
%TO.N,MISO*%
X161500000Y-107810000D03*
%TO.P,REF\u002A\u002A,6*%
%TO.N,Earth*%
X161500000Y-110350000D03*
%TD*%
D12*
%TO.P,A1,1,D1/TX*%
%TO.N,unconnected-(A1-Pad1)*%
X116450000Y-111610000D03*
D13*
%TO.P,A1,2,D0/RX*%
%TO.N,unconnected-(A1-Pad2)*%
X118990000Y-111610000D03*
%TO.P,A1,3,~{RESET}*%
%TO.N,unconnected-(A1-Pad3)*%
X121530000Y-111610000D03*
%TO.P,A1,4,GND*%
%TO.N,Earth*%
X124070000Y-111610000D03*
%TO.P,A1,5,D2*%
%TO.N,INTERRUPT*%
X126610000Y-111610000D03*
%TO.P,A1,6,D3*%
%TO.N,unconnected-(A1-Pad6)*%
X129150000Y-111610000D03*
%TO.P,A1,7,D4*%
%TO.N,GPS_RECEIVE*%
X131690000Y-111610000D03*
%TO.P,A1,8,D5*%
%TO.N,GPS_TRANSMIT*%
X134230000Y-111610000D03*
%TO.P,A1,9,D6*%
%TO.N,unconnected-(A1-Pad9)*%
X136770000Y-111610000D03*
%TO.P,A1,10,D7*%
%TO.N,unconnected-(A1-Pad10)*%
X139310000Y-111610000D03*
%TO.P,A1,11,D8*%
%TO.N,BUTTON*%
X141850000Y-111610000D03*
%TO.P,A1,12,D9*%
%TO.N,unconnected-(A1-Pad12)*%
X144390000Y-111610000D03*
%TO.P,A1,13,D10*%
%TO.N,CS*%
X146930000Y-111610000D03*
%TO.P,A1,14,D11*%
%TO.N,MOSI*%
X149470000Y-111610000D03*
%TO.P,A1,15,D12*%
%TO.N,MISO*%
X152010000Y-111610000D03*
%TO.P,A1,16,D13*%
%TO.N,CLK*%
X152010000Y-96370000D03*
%TO.P,A1,17,3V3*%
%TO.N,3.3v*%
X149470000Y-96370000D03*
%TO.P,A1,18,AREF*%
%TO.N,unconnected-(A1-Pad18)*%
X146930000Y-96370000D03*
%TO.P,A1,19,A0*%
%TO.N,unconnected-(A1-Pad19)*%
X144390000Y-96370000D03*
%TO.P,A1,20,A1*%
%TO.N,unconnected-(A1-Pad20)*%
X141850000Y-96370000D03*
%TO.P,A1,21,A2*%
%TO.N,unconnected-(A1-Pad21)*%
X139310000Y-96370000D03*
%TO.P,A1,22,A3*%
%TO.N,unconnected-(A1-Pad22)*%
X136770000Y-96370000D03*
%TO.P,A1,23,A4*%
%TO.N,SDA*%
X134230000Y-96370000D03*
%TO.P,A1,24,A5*%
%TO.N,SCL*%
X131690000Y-96370000D03*
%TO.P,A1,25,A6*%
%TO.N,unconnected-(A1-Pad25)*%
X129150000Y-96370000D03*
%TO.P,A1,26,A7*%
%TO.N,unconnected-(A1-Pad26)*%
X126610000Y-96370000D03*
%TO.P,A1,27,+5V*%
%TO.N,5v*%
X124070000Y-96370000D03*
%TO.P,A1,28,~{RESET}*%
%TO.N,unconnected-(A1-Pad28)*%
X121530000Y-96370000D03*
%TO.P,A1,29,GND*%
%TO.N,Earth*%
X118990000Y-96370000D03*
%TO.P,A1,30,VIN*%
%TO.N,unconnected-(A1-Pad30)*%
X116450000Y-96370000D03*
%TD*%
D14*
%TO.P,SW1,1,1*%
%TO.N,BUTTON*%
X167300000Y-85480000D03*
%TO.N,5v*%
X167300000Y-90560000D03*
%TD*%
D10*
%TO.P,REF\u002A\u002A,1*%
%TO.N,Earth*%
X134375000Y-87500000D03*
%TD*%
D11*
%TO.P,REF\u002A\u002A,1*%
%TO.N,INTERRUPT*%
X127375000Y-85500000D03*
%TO.P,REF\u002A\u002A,2*%
%TO.N,N/C*%
X124835000Y-85500000D03*
%TO.P,REF\u002A\u002A,3*%
X122295000Y-85500000D03*
%TO.P,REF\u002A\u002A,4*%
X119755000Y-85500000D03*
%TO.P,REF\u002A\u002A,5*%
%TO.N,SDA*%
X117215000Y-85500000D03*
%TO.P,REF\u002A\u002A,6*%
%TO.N,SCL*%
X114675000Y-85500000D03*
%TO.P,REF\u002A\u002A,7*%
%TO.N,Earth*%
X112135000Y-85500000D03*
%TO.P,REF\u002A\u002A,8*%
%TO.N,5v*%
X109595000Y-85500000D03*
%TD*%
D10*
%TO.P,REF\u002A\u002A,1*%
%TO.N,Earth*%
X114500000Y-101500000D03*
%TD*%
%TO.P,REF\u002A\u002A,1*%
%TO.N,Earth*%
X151500000Y-87500000D03*
D11*
%TO.P,REF\u002A\u002A,2*%
X154040000Y-87500000D03*
%TD*%
D10*
%TO.P,REF\u002A\u002A,1*%
%TO.N,SCL*%
X110000000Y-97650000D03*
D11*
%TO.P,REF\u002A\u002A,2*%
%TO.N,5v*%
X110000000Y-100190000D03*
%TO.P,REF\u002A\u002A,3*%
%TO.N,GPS_RECEIVE*%
X110000000Y-102730000D03*
%TO.P,REF\u002A\u002A,4*%
%TO.N,GPS_TRANSMIT*%
X110000000Y-105270000D03*
%TO.P,REF\u002A\u002A,5*%
%TO.N,Earth*%
X110000000Y-107810000D03*
%TO.P,REF\u002A\u002A,6*%
%TO.N,SDA*%
X110000000Y-110350000D03*
%TD*%
%TO.P,REF\u002A\u002A,1*%
%TO.N,Earth*%
X137925000Y-91500000D03*
%TO.P,REF\u002A\u002A,2*%
%TO.N,5v*%
X140465000Y-91500000D03*
%TO.P,REF\u002A\u002A,3*%
%TO.N,SDA*%
X143005000Y-91500000D03*
%TO.P,REF\u002A\u002A,4*%
%TO.N,SCL*%
X145545000Y-91500000D03*
%TO.P,REF\u002A\u002A,5*%
%TO.N,N/C*%
X148085000Y-91500000D03*
%TD*%
D10*
%TO.P,REF\u002A\u002A,1*%
%TO.N,Earth*%
X107000000Y-91500000D03*
D11*
%TO.P,REF\u002A\u002A,2*%
X109540000Y-91500000D03*
%TD*%
D15*
%TO.P,R1,1*%
%TO.N,Earth*%
X161500000Y-91310000D03*
D13*
%TO.P,R1,2*%
%TO.N,BUTTON*%
X161500000Y-83690000D03*
%TD*%
D10*
%TO.P,REF\u002A\u002A,1*%
%TO.N,Earth*%
X100725000Y-111680000D03*
D11*
%TO.P,REF\u002A\u002A,2*%
%TO.N,5v*%
X103265000Y-111680000D03*
%TD*%
D16*
%TO.N,Earth*%
X178000000Y-113500000D03*
%TO.N,*%
X178000000Y-67000000D03*
%TO.N,Earth*%
X72500000Y-113500000D03*
X72500000Y-67000000D03*
%TD*%
D17*
%TO.N,Earth*%
X119500000Y-91500000D02*
X109540000Y-91500000D01*
X107000000Y-91500000D02*
X114500000Y-99000000D01*
X114500000Y-99000000D02*
X114500000Y-101500000D01*
X151500000Y-87500000D02*
X134375000Y-87500000D01*
%TO.N,INTERRUPT*%
X127375000Y-91500000D02*
X127375000Y-90000000D01*
X115050000Y-97050000D02*
X125000000Y-107000000D01*
X115050000Y-95790101D02*
X115050000Y-97050000D01*
X127375000Y-91500000D02*
X124375000Y-94500000D01*
X124375000Y-94500000D02*
X116340101Y-94500000D01*
X116340101Y-94500000D02*
X115050000Y-95790101D01*
X125000000Y-107000000D02*
X126610000Y-107000000D01*
%TD*%
M02*
